<svg class="icon" viewBox="0 0 1024 1024" xmlns="http://www.w3.org/2000/svg" width="200" height="200"><defs><style/></defs><path d="M372.173 1010.003l-68.756-.435-73.48-10.195-51.97-18.557-27.572-21.726-8.143-12.745-5.315-17.25a15.206 15.206 0 0 1-.498-3.917v-3.543c0-1.274.156-2.55.467-3.761l.528-4.29c0-1.057.093-2.113.342-3.17l.995-14.609c.124-1.43.466-2.797.964-4.134l6.931-16.909a14.906 14.906 0 0 1 2.55-3.667c.279-.405 2.89-3.73 3.201-4.135l4.539-5.595c.715-.84 1.492-1.648 2.393-2.331l10.102-7.336c1.492-1.213 3.202-2.113 5.036-2.736l26.73-10.319-15.789-14.64-29.093-36.865-13.863-24.524c-.653-.964-1.181-2.02-1.617-3.14l-8.33-20.297-30.338 33.01-14.733 9.728-18.246 6.217-9.728 1.088c-.435.062-2.643.093-3.11.093a15.55 15.55 0 0 1-5.78-1.119c-3.668-1.46-8.237-4.88-9.978-8.485-1.648-1.647-3.17-3.45-3.792-5.004l-8.579-23.188-4.569-36.833.871-35.217 11.16-52.623 11.935-33.166 25.89-47.183 32.048-41.402 51.162-47.277-1.616-6.87a15.88 15.88 0 0 1-.467-3.823v-16.442c0-1.367.187-2.705.528-4.01l9.573-30.15 8.952-16.785 1.555-14.672 10.662-31.02 3.792-5.812v-14.734l6.932-40.843 14.702-44.076 19.395-40.253 38.388-54.768 30.648-32.948 31.984-27.632 32.854-20.204 64.435-24.12 71.397-12.34 60.488-.964 45.755 5.252 59.555 14.453 42.956 17.003 27.012 14.391 32.886 22.41 29.404 27.136L821.728 144l23.591 40.252 27.353 76.9 7.584 32.17 6.403 42.957 20.67 38.201 9.356 40.874.125 6.87-.902 7.148.186 3.73c0 1.274-.155 2.55-.466 3.76l-4.01 16.88c-.31 1.273-.746 2.516-1.368 3.667l-2.207 4.29 54.737 93.155 22.566 54.52 8.858 37.641 4.539 57.534-5.408 35.963-14.112 33.974-14.453 15.915a15.636 15.636 0 0 1-3.855 2.456l-6.247 2.921c-.622.28-3.823 1.399-4.445 1.616-1.617.56-3.264.808-4.974.808h-3.978c-1.74 0-3.42-.279-5.067-.839-.62-.218-3.76-1.336-4.35-1.616l-4.88-2.393c-.716-.374-3.668-2.363-4.321-2.828-.435-.312-3.45-2.58-3.854-2.922l-10.475-10.63-17.655-26.39-11.656 29.095-38.046 56.042 35.28 18.773 24.587 19.054c.901.684 1.74 1.523 2.486 2.394l10.755 15.417 6.59 22.846a15.05 15.05 0 0 1-.248 6.559l-.373 2.673c0 1.057-.124 2.145-.341 3.202l-.716 3.45a14.5 14.5 0 0 1-1.803 4.632l-.932 1.616c-.467 1.368-.995 2.922-1.336 3.544l-18.342 23.342-17.437 11.594-38.917 15.79-48.178 9.884-69.377 2.3-75.656-8.05-46.22-11.128-54.023-16.723-32.389-1.43-41.868 22.878-45.878 15.635-42.024 5.47-11.811.56h-.623zm-204.618-86.628l8.424 17.593 10.568 8.828 31.083 14.08 64.217 12.31 23.437 2.394 66.58.341 36.056-2.828 29.621-7.056 58.218-28.285 3.7-3.668a15.462 15.462 0 0 1 12.09-3.885l29.747 2.673 11.066-.03c1.057 0 2.113.123 3.17.34l39.165 12.341 29.157 9.324 85.447 13.086 14.297.84 65.399-2.145 52.001-11.657 30.43-14.422 11.998-12.185 3.357-4.6c.528-1.616 1.274-3.73 1.771-4.538l.435-2.02c0-1.306.186-2.642.497-3.885l.031-.031-5.253-14.485-6.683-6.963-18.245-14.329-18.806-10.6-29.932-15.043a17.236 17.236 0 0 1-3.17-2.456c-5.968-6.123-8.455-18.587-2.362-24.587l19.395-20.639 26.95-41.527 17.25-44.977c.374-.995.809-1.959 1.399-2.891l2.921-5.315c1.12-2.424 2.891-4.538 5.067-6.124l2.549-1.833c4.725-3.357 12.31-3.823 17.469-.995 2.735 1.492 5.688 4.134 7.118 6.932l34.533 54.115 3.7 2.052 5.47-4.01 10.755-18.524 5.502-21.448 2.735-20.327-1.834-33.197-10.288-50.292-27.602-64.218-23.592-43.485-25.333-36.771c-.28-.435-1.523-2.891-1.772-3.326-1.057-2.145-1.647-4.539-1.647-6.963 0-1.678.28-4.91.808-6.496l9.294-37.548-3.357-18.96-7.181-22.256-16.816-28.751a15.106 15.106 0 0 1-2.145-5.222c-.062-.311-.683-3.326-.715-3.668l-8.703-56.229-21.355-68.444-29.249-54.769-55.172-54.706-32.822-20.61-38.387-17.095-40.346-11.718-70.59-11.19-55.545.932-66.082 11.376-36.43 11.936-41.838 21.199-25.425 19.707-40.687 41.838-35.838 51.131-26.67 61.513-10.071 49.981.218 18.09c0 3.917-1.492 7.74-4.165 10.6l-6.87 11.159-5.066 25.52.093 4.196c0 3.202-.995 6.31-2.828 8.952l-8.797 14.64-7.366 26.918.56 11.19 2.953 11.905a15.534 15.534 0 0 1-5.44 17.22l-46.47 40.409-23.25 25.891-27.788 42.363L65.54 635.61l-10.102 47.06-.716 16.194.777 28.782 7.927 30.058 10.132-3.388 23.002-19.738 19.24-29.59c.312-1.866 1.213-4.725 2.176-6.341 1.461-2.456 4.755-6.465 7.304-7.802.093-.062 2.766-1.399 2.86-1.461 4.632-2.238 10.32-1.99 15.044.373.467.187.902.374 1.306.59 4.04 2.083 7.864 6.31 8.89 10.787l9.014 29.186 28.378 52.438 39.01 39.226 11.935 9.387a15.46 15.46 0 0 1 5.937 4.91c1.927 2.643 4.446 7.865 4.446 11.128 0 4.538-1.959 9.729-5.378 12.682-1.74 1.523-4.165 2.953-6.62 3.792v.063c-1.275.435-4.694 1.43-6.03 1.522l-38.73 8.206-3.233 1.959a15.192 15.192 0 0 1-3.232 1.461l-3.17 1.43-5.378 3.419-3.885 4.787c-.218.248-2.145 3.077-2.394 3.295l-4.787 13.055.062 4.102c0 1.057-.093 4.539-.341 5.596l-.498 4.88c0 1.274-.155 2.55-.466 3.76l-.466 1.958z"/></svg>