<?xml version="1.0" standalone="no"?><!DOCTYPE svg PUBLIC "-//W3C//DTD SVG 1.1//EN" "http://www.w3.org/Graphics/SVG/1.1/DTD/svg11.dtd"><svg t="1481439336914" class="icon" style="" viewBox="0 0 1024 1024" version="1.1" xmlns="http://www.w3.org/2000/svg" p-id="2486" xmlns:xlink="http://www.w3.org/1999/xlink" width="200" height="200"><defs><style type="text/css"></style></defs><path d="M998.091776 461.331031C911.719424 387.012855 816.546816 381.419167 816.546816 381.419167 468.656128 157.668608 234.32704 381.419167 234.32704 381.419167 102.368256 384.61556 24.792064 461.331031 24.792064 461.331031L24.792064 666.75042C9.371648 687.875876 0 713.648584 0 741.818583L0 814.262308 0 1023.103188 52.258816 1023.103188 102.892544 1023.103188 153.552896 1023.103188 153.552896 971.960906 153.552896 945.84032 869.607424 945.84032 869.607424 971.960906 869.607424 1023.103188 921.316352 1023.103188 972.498944 1023.103188 1023.68256 1023.103188 1023.68256 971.960906 1023.68256 814.261284 1023.68256 762.045693 1023.68256 741.817562C1023.683584 713.199409 1013.961728 687.078825 998.091776 665.802962L998.091776 461.331031ZM75.97568 479.710289C157.550592 426.169688 241.523712 429.366081 241.523712 429.366081 517.43744 197.62454 810.949632 430.963254 810.949632 430.963254 914.889728 445.148526 962.60096 500.786632 946.907136 486.90115L946.907136 624.747121C931.211264 617.880607 913.942528 613.958784 895.721472 613.958784L842.514432 613.958784C814.998528 556.674391 756.66432 516.991647 688.861184 516.991647 621.033472 516.991647 562.700288 556.67337 535.18336 613.958784L488.4992 613.958784C460.982272 556.674391 402.651136 516.991647 334.821376 516.991647 267.017216 516.991647 208.66048 556.67337 181.169152 613.958784L127.961088 613.958784C109.391872 613.958784 91.896832 618.080125 75.976704 625.172759L75.976704 479.710289 75.97568 479.710289ZM786.381824 613.958784 591.316992 613.958784C613.685248 584.343037 648.875008 564.939584 688.862208 564.939584 728.824832 564.939584 764.013568 584.343037 786.381824 613.958784L786.381824 613.958784ZM432.365568 613.958784 237.30176 613.958784C259.694592 584.343037 294.858752 564.939584 334.821376 564.939584 374.808576 564.939584 409.998336 584.343037 432.365568 613.958784L432.365568 613.958784ZM972.499968 762.045693 972.499968 814.261284 972.499968 971.959882 921.316352 971.959882 921.316352 945.839296 921.316352 895.246456 869.607424 895.246456 153.552896 895.246456 102.892544 895.246456 102.892544 945.839296 102.892544 971.959882 52.258816 971.959882 52.258816 741.817562 51.183616 741.817562C51.183616 699.439777 85.549056 665.10209 127.960064 665.10209L895.721472 665.10209C938.134528 665.10209 972.499968 699.439777 972.499968 741.817562L972.499968 762.045693 972.499968 762.045693Z" p-id="2487"></path></svg>