<svg class="icon" viewBox="0 0 1024 1024" xmlns="http://www.w3.org/2000/svg" width="200" height="200"><defs><style/></defs><path d="M945.6 485.376l-400.288-407.2c-17.632-17.92-48.48-17.92-65.984 0l-400 406.176c-14.208 13.536-18.4 34.304-10.624 53.12 7.808 17.92 24.256 28.992 42.944 28.992h42.976c12.256 0 22.24 10.144 22.24 22.624v354.336c0 26.368 20.992 47.776 46.816 47.776h162.784c25.824 0 46.816-21.408 46.816-47.776V686.752c0-12.448 9.984-22.592 22.208-22.592h114.88c12.224 0 22.208 10.144 22.208 22.592v256.672c0 26.368 20.992 47.776 46.848 47.776h162.784c26.208 0 47.552-21.408 47.552-47.776v-353.6c0-7.072 1.728-11.616 6.24-16.192 4.16-4.256 9.536-6.368 15.936-6.368h40.192c18.688 0 35.136-11.136 43.072-29.248 7.648-18.208 3.872-38.816-9.6-52.64z"/></svg>