<svg class="icon" viewBox="0 0 1024 1024" xmlns="http://www.w3.org/2000/svg" width="200" height="200"><defs><style/></defs><path d="M974.871 445.487c-41.715-442.275-462.866-429-462.866-429C117.475 32.594 57.312 345.44 48.207 448.944a58.296 58.296 0 0 0-1.603 13.55v16.482c-.017 1.907 0 2.91 0 2.91v90.4h-.008v64.948h.044c33.015 216.411 232.665 310.052 232.665 310.052l77.566 77.566c70.862-23.482 38.783-77.566 38.783-77.566l-77.567-77.567-38.782 38.784C112.95 799.358 85.621 638.41 85.395 637.05l.098-3.318a58.112 58.112 0 0 0 19.287 3.287c15.851 0 30.204-6.342 40.69-16.61 55.205 157.5 209.273 249.308 366.496 249.308 158.736 0 311.12-86.738 366.209-249.653 10.518 10.474 25.023 16.955 41.053 16.955 32.156 0 58.173-26.058 58.173-58.176V462.494a58.105 58.105 0 0 0-2.53-17.007zM508.256 718.222c-123.245 0-205.81-86.809-220.656-231.299h29.085c23.558 111.767 87.34 167.67 191.341 167.67 103.966 0 167.708-55.903 191.304-167.67h30.034c-14.844 144.49-97.942 231.299-221.108 231.299zm-163.58-371.283c0-35.715 20.148-64.65 45.032-64.65 24.846 0 44.995 28.935 44.995 64.65s-20.15 64.65-44.995 64.65c-24.884 0-45.032-28.935-45.032-64.65zm242.359-.416c0-35.679 20.15-64.614 44.993-64.614 24.846 0 45.034 28.935 45.034 64.614 0 35.714-20.188 64.65-45.034 64.65-24.844 0-44.993-28.935-44.993-64.65zm332.194 57.796c-8.97 0-17.46 2.032-25.043 5.653-28.78-179.845-166.558-315.92-382.219-315.92-237.586 9.283-355.09 157.824-381.79 316.09-7.672-3.729-16.288-5.823-25.396-5.823-2.513 0-4.982.177-7.412.485C174.75 50.928 512.005 55.27 512.005 55.27c298.57 12.738 388.414 230.226 415.275 349.616a58.635 58.635 0 0 0-8.05-.567z"/></svg>