<svg class="icon" viewBox="0 0 1289 1024" xmlns="http://www.w3.org/2000/svg" width="251.758" height="200"><defs><style/></defs><path d="M271.962 1024c20.033-108.332 39.48-216.778 60.559-324.901 4.686-24.025 4.835-41.348-15.914-60.39-35.278-32.379-50.565-77.394-53.039-124.264-2.948-55.69-.696-111.657-.696-169.254 22.494 17.1 46.594 25.65 74.166 21.617 27.255-3.998 48.043-18.293 64.753-41.239 19.784 26.884 45.285 42.338 78.351 42.17 32.61-.168 57.82-15.307 75.94-40.04 12.244 9.933 24.274 19.25 35.629 29.318 2.07 1.835 2.3 6.865 1.868 10.23-5.125 40.073 5.529 75 34.22 103.665 21.841 21.826 48.488 33.162 79.587 33.216 37.821.074 75.642.02 113.462.02h13.864c-2.636 35.764-9.798 69.236-28.011 98.723-11.436 18.51-26.568 34.888-41.253 51.138-5.071 5.603-7.417 9.879-6.034 17.262 20 106.734 39.79 213.514 59.655 320.282 2.016 10.823 4.18 21.63 6.271 32.447H271.962zm0 0"/><path d="M491.896 0c20.7 7.41 38.131 18.691 45.872 40.552 2.199 6.21 3.95 12.974 3.979 19.493.283 72.05.552 144.104.02 216.152-.222 30.094-23.776 55.857-52.326 59.667-31.758 4.241-60.382-13.633-69.182-44.078-2.36-8.165-3.048-17.053-3.081-25.61-.243-62.999-.135-125.99-.128-188.99 0-44.286 10.653-60.349 51.2-77.186h23.647zm156.078 0c23.689 8.678 42.116 22.617 47.99 48.725a75.699 75.699 0 0 1 1.828 16.338c.128 64.96.102 129.929.074 194.897 0 2.313-.357 4.625-.612 7.727-39.898 5.732-70.403 25.744-91.031 61.664-21.49-12.77-33.088-31.22-33.296-55.238-.6-70.47-.903-140.96.08-211.423.458-33.264 20.484-53.013 51.32-62.69h23.647zM804.06 0c9.744 5.577 20.477 9.96 29.008 17.013 13.276 10.956 20.364 26.29 20.445 43.573.33 68.11.109 136.213.054 204.316 0 .736-.418 1.464-.687 2.36H728.46V76.525c0-44.024 11.489-60.943 51.954-76.525h23.646zm484.8 111.15c-1.806 8.335-3.472 16.709-5.447 25.003-13.708 57.498-52.277 91.873-112.58 100.24-9.278 1.29-18.638 2.01-29.366 3.143-1.68-22.043 1.241-42.414 6.52-62.446 15.285-57.93 56.512-85.177 112.722-94.145 9.285-1.478 18.765-1.72 28.159-2.536-.007 10.243-.007 20.492-.007 30.742zm0 305.07c-89.343 5.941-165.26-75.15-146.482-156.462 77.88-.243 128.339 38.3 141.724 105.108 1.538 7.668 3.17 15.313 4.76 22.974v28.38h-.001zM0 234.121c59.377-.188 118.756-.404 178.134-.58 14.512-.047 29.022-.014 44.504-.014v31.343H0v-30.75zm771.91 239.037c-20.478 0-40.963.074-61.443-.014-48.683-.208-86.37-36.77-87.805-85.11-1.397-46.917 34.894-87.448 82.527-89.086 45.245-1.55 90.632-1.692 135.856.06 48.885 1.896 83.402 42.345 81.509 91.987-1.761 45.967-39.682 81.892-86.836 82.142-21.268.114-42.535.021-63.809.021zm-510.224-271.18c0-22.84-.215-45.677.047-68.51.439-37.475 26.702-65.054 61.813-65.29 35.561-.235 62.628 27.593 62.89 65.474.318 46.458.46 92.917-.067 139.376-.378 33.14-23.923 59.815-54.173 62.998-32.521 3.42-60.524-15.521-68.467-46.843-1.62-6.392-1.894-13.235-1.961-19.877-.23-22.447-.088-44.888-.082-67.328zm726.084 13.108c-6.02-98.784 49.325-157.347 146.423-157.86.385 40.466-5.408 79.184-32.387 111.138-29.6 35.064-70.59 44.045-114.035 46.722zm-.129 69.243c96.511-1.902 151.508 61.145 145.392 155.62-95.075 1.793-151.183-59.163-145.392-155.62zm-115.877-20.675v-29.391h236.676v29.391H871.764zm0 0"/></svg>